<?xml version="1.0" encoding="utf-8"?>
<!-- Generator: Adobe Illustrator 20.1.0, SVG Export Plug-In . SVG Version: 6.00 Build 0)  -->
<svg version="1.0" id="Layer_1" xmlns="http://www.w3.org/2000/svg" xmlns:xlink="http://www.w3.org/1999/xlink" x="0px" y="0px"
	 viewBox="0 0 446.1 465.9" style="enable-background:new 0 0 446.1 465.9;" xml:space="preserve">
<style type="text/css">
	.st0{clip-path:url(#SVGID_2_);fill:#F15A24;}
	.st1{clip-path:url(#SVGID_2_);fill:#322C75;}
	.st2{fill:#322C75;}
	.st3{fill:#F15A24;}
</style>
<g>
	<g>
		<defs>
			<path id="SVGID_1_" d="M102.2,180c-1.6,8-2.5,16.3-2.5,24.9c0,68.1,55.2,123.4,123.4,123.4S346.5,273,346.5,204.9
				c0-68.1-55.2-123.4-123.4-123.4C163.4,81.5,113.7,123.8,102.2,180"/>
		</defs>
		<clipPath id="SVGID_2_">
			<use xlink:href="#SVGID_1_"  style="overflow:visible;"/>
		</clipPath>
		<path class="st0" d="M323.3,58.3c16.3,10.5,109.4,77.9,56,83.7c-21.8,2.4-37.4,8.2-38.8,8.6c-19.9,5.5-59.5,11.3-79.5,16.7
			c-41.5,11.1-173.2,42.9-174.4,43.1C25.3,167.5,61.2,60.8,161.7,75.4C225.5,75.4,258.9,58.3,323.3,58.3"/>
		<polygon class="st0" points="99.3,207.6 334,151.9 287.4,142 242.4,139.7 180.2,165.3 		"/>
		<path class="st1" d="M381.9,320.4c-4.1,0-56.1,0-59.7,0c-13.8,0-27.6,0-41.4,0c-2.3,0-3.6-0.5-4.3-3c-9-33.9-18.2-67.7-27.1-101.5
			c-1.9-7.2,1.9-14,8.9-16c15.9-4.4,42.5-11.4,59.4-15.8c9.1-2.4,15.4-4,15.6-3.9C392.7,156.9,381.9,273.3,381.9,320.4"/>
		<polygon class="st1" points="343.3,177.4 314,185.2 319.7,186.8 332.6,185.3 339.2,182.6 		"/>
		<path class="st1" d="M103.5,330.3c0-2.2,0-4,0-5.9c0-26.3,0-52.5-0.1-78.8c0-3.1,0.8-4.5,3.9-5.3c24-6.3,48-12.8,72-19.2
			c11-2.9,16.9,0.5,19.8,11.5c8.4,31.5,16.8,62.9,25.2,94.4c0.3,0.9,0.4,1.9,0.7,3.2H103.5z"/>
	</g>
	<g>
		<path class="st2" d="M175.2,384.4h-9v-22.7h-4.9v-7.1h19v7.1h-5.1V384.4z"/>
		<path class="st2" d="M212.8,384.4h-9.3l-0.7-3.8h-6l-0.7,3.8h-9.3l8-29.8h11L212.8,384.4z M201.8,374.2l-0.6-3.5
			c0,0,0-0.2-0.1-0.5c0-0.3-0.2-1.4-0.5-3.4c0-0.2-0.1-0.5-0.1-0.9s-0.1-0.9-0.2-1.4l-0.3-2.8c0,0.3-0.1,0.6-0.1,0.9
			c-0.1,0.3-0.1,0.7-0.2,1.1c-0.1,0.8-0.2,1.4-0.2,1.7c0,0.3-0.1,0.5-0.1,0.6l-0.6,3.6l-0.9,4.7H201.8z"/>
		<path class="st3" d="M231.4,384.4h-9v-29.8h8.7c4.3,0,7.5,0.8,9.6,2.4c2.5,1.9,3.7,4.5,3.7,7.8c0,3.6-1.3,6.3-3.9,8.1
			c-1.8,1.2-4.4,1.8-7.7,1.8h-1.4V384.4z M231.4,367.9l0.4,0c1.1,0,2-0.3,2.6-0.9c0.6-0.6,1-1.4,1-2.5c0-1-0.3-1.9-0.9-2.5
			c-0.6-0.7-1.4-1-2.4-1h-0.6V367.9z"/>
		<path class="st3" d="M263.6,384.4h-9v-29.8h9V384.4z"/>
		<path class="st3" d="M275.3,384.4v-29.8h8.6l4.5,10.5c0.2,0.6,0.5,1.3,0.8,2.1c0.3,0.8,0.6,1.7,1,2.8l0.9,2.6
			c-0.3-2.6-0.6-4.8-0.8-6.6c-0.2-1.8-0.3-3.4-0.3-4.6v-6.7h8.6v29.8h-8.6l-4.5-11c-0.5-1.2-0.9-2.3-1.3-3.3c-0.4-1-0.7-2-1-2.9
			c0.2,2.1,0.3,3.9,0.4,5.5s0.1,2.9,0.1,4.1v7.6H275.3z"/>
	</g>
</g>
</svg>
